<?xml version="1.0" encoding="utf-8"?>
<!-- Generator: Adobe Illustrator 16.0.0, SVG Export Plug-In . SVG Version: 6.00 Build 0)  -->
<!DOCTYPE svg PUBLIC "-//W3C//DTD SVG 1.1//EN" "http://www.w3.org/Graphics/SVG/1.1/DTD/svg11.dtd">
<svg version="1.1" id="Capa_1" xmlns="http://www.w3.org/2000/svg" xmlns:xlink="http://www.w3.org/1999/xlink" x="0px" y="0px"
	 width="300px" height="300px" viewBox="0 0 300 300" enable-background="new 0 0 300 300" xml:space="preserve">
<g id="_x31_5">
	<path fill="#ADADAD" stroke="#000000" stroke-miterlimit="10" d="M294.201,227.084c1.525,0,1.758,1.236,1.758,2.764v66.658
		c0,1.525-0.23,0.754-1.758,0.754h-2.01c-1.525,0-1.76,0.771-1.76-0.754v-66.658c0-1.525,0.233-2.764,1.76-2.764H294.201
		L294.201,227.084z"/>
	<path fill="#ADADAD" stroke="#000000" stroke-miterlimit="10" d="M298.641,232.717c0,1.525-1.236,1.758-2.764,1.758H266.65
		c-1.527,0-2.765-0.231-2.765-1.758v-2.01c0-1.525,1.236-1.759,2.765-1.759h29.227c1.525,0,2.764,0.231,2.764,1.759V232.717z"/>
	<path fill="#ADADAD" stroke="#000000" stroke-miterlimit="10" d="M293.124,244.482c-0.552,0.613-1.132,0.259-1.744-0.293
		l-11.729-10.564c-0.612-0.553-1.024-1.092-0.474-1.705l0.726-0.807c0.554-0.612,1.134-0.258,1.746,0.293l11.729,10.564
		c0.613,0.553,1.025,1.092,0.475,1.704L293.124,244.482z"/>
	<g id="body">
		<path fill="#ADADAD" stroke="#000000" stroke-miterlimit="10" d="M271.063,270.184c0.387-0.785,1.562-0.957,2.277-0.235
			c0.717,0.721,3.233,6.983,3.771,8.176c0.537,1.192,2.203,2.699,1.719,4.129c-0.484,1.431-1.449,2.791-3.604,2.647
			c-1.48-0.098-0.599-2.646-1.013-2.539c-1.405,0.369-1.569-1.309-1.049-2.553c0.521-1.246-0.037-4.981-0.791-6.393
			C271.619,272.006,270.461,271.406,271.063,270.184z"/>
		<path fill="#ADADAD" stroke="#000000" stroke-miterlimit="10" d="M275.037,282.632c0.802,0.843,1.574,11.212,0.959,11.872
			c-0.615,0.658-1.842,0.811-3.871,0.021c-2.029-0.787-3.908-1.967-3.652-2.854c0.256-0.889,1.062-1.114,1.469-2.394
			c0.406-1.279,0.898-5.131,1.769-5.961S273.953,281.492,275.037,282.632z"/>
		<path fill="#ADADAD" stroke="#000000" stroke-miterlimit="10" d="M264.027,283.627c-0.701,0.928-0.295,11.318,0.393,11.904
			c0.686,0.585,1.922,0.597,3.85-0.416c1.928-1.014,3.658-2.396,3.306-3.252c-0.354-0.854-1.183-0.986-1.731-2.211
			c-0.55-1.227-1.475-4.996-2.433-5.723S264.975,282.371,264.027,283.627z"/>
		<path fill="#939393" stroke="#000000" stroke-miterlimit="10" d="M268.536,268.389c2.177,0.053,4.271,0.084,4.688,1.131
			s0.336,3.226,0.67,5.652c0.336,2.43,2.011,6.365-0.418,8.207s-6.699,2.01-8.877,0c-2.177-2.01-1.256-6.197-1.004-8.291
			c0.252-2.093-0.503-4.188,0.754-5.568C265.605,268.141,266.707,268.346,268.536,268.389z"/>
		<path fill="#ADADAD" stroke="#000000" stroke-miterlimit="10" d="M264.145,272.63c-0.492-0.724-1.678-0.729-2.287,0.085
			c-0.608,0.814-2.226,7.367-2.59,8.623c-0.365,1.256-1.807,2.98-1.125,4.33c0.681,1.348,1.825,2.559,3.939,2.117
			c1.451-0.305,0.22-2.705,0.645-2.654c1.445,0.168,1.373-1.516,0.683-2.678c-0.688-1.16-0.66-4.938-0.109-6.438
			C263.848,274.514,264.911,273.758,264.145,272.63z"/>
	</g>
	<g id="soga">
		<g>
			<path fill="none" stroke="#000000" stroke-width="4" stroke-miterlimit="10" d="M267.266,273.156
				c-4.39,0-7.947-4.104-7.947-9.166c0-4.252,8.988-15.133,7.947-15.133"/>
			<path fill="none" stroke="#4A2F11" stroke-width="3" stroke-miterlimit="10" d="M267.266,273.156
				c-4.39,0-7.947-4.104-7.947-9.166c0-4.252,8.988-15.133,7.947-15.133"/>
		</g>
		<g>
			<path fill="none" stroke="#000000" stroke-width="4" stroke-miterlimit="10" d="M267.266,273.156
				c4.391,0,7.947-4.104,7.947-9.166c0-4.229-9.011-15.133-7.947-15.133"/>
			<path fill="none" stroke="#4A2F11" stroke-width="3" stroke-miterlimit="10" d="M267.266,273.156
				c4.391,0,7.947-4.104,7.947-9.166c0-4.229-9.011-15.133-7.947-15.133"/>
		</g>
		
			<line fill="none" stroke="#000000" stroke-width="4" stroke-linecap="round" stroke-miterlimit="10" x1="267.123" y1="232.214" x2="267.123" y2="244.461"/>
		
			<line fill="none" stroke="#4A2F11" stroke-width="3" stroke-linecap="round" stroke-miterlimit="10" x1="267.123" y1="232.214" x2="267.123" y2="244.461"/>
		<path fill="none" stroke="#000000" stroke-width="4" stroke-linecap="round" stroke-miterlimit="10" d="M264.622,247.58
			c0.825,1.301,4.353,1.17,5.003,0.439"/>
		<path fill="none" stroke="#4A2F11" stroke-width="3" stroke-linecap="round" stroke-miterlimit="10" d="M264.622,247.58
			c0.825,1.301,4.353,1.17,5.003,0.439"/>
		<path fill="none" stroke="#000000" stroke-width="4" stroke-linecap="round" stroke-miterlimit="10" d="M264.512,244.805
			c0.826,0.969,4.352,0.872,5.004,0.328"/>
		<path fill="none" stroke="#4A2F11" stroke-width="3" stroke-linecap="round" stroke-miterlimit="10" d="M264.512,244.805
			c0.826,0.969,4.352,0.872,5.004,0.328"/>
		<path fill="none" stroke="#000000" stroke-width="4" stroke-linecap="round" stroke-miterlimit="10" d="M264.502,241.988
			c0.957,1.207,4.451,0.709,5.021-0.086"/>
		<path fill="none" stroke="#4A2F11" stroke-width="3" stroke-linecap="round" stroke-miterlimit="10" d="M264.502,241.988
			c0.957,1.207,4.451,0.709,5.021-0.086"/>
	</g>
	<g id="head">
		<path fill="#ADADAD" stroke="#000000" stroke-miterlimit="10" d="M275.143,258.122c3.385,5.503,0.267,10.808-6.908,14.604
			c-7.174,3.795-13.41,4.108-15.762-3.194c-4.502-13.993-3.35-14.407,4.817-17.783C264.79,248.648,270.129,249.977,275.143,258.122z
			"/>
		
			<line fill="none" stroke="#000000" stroke-width="2" stroke-linecap="round" stroke-miterlimit="10" x1="255.119" y1="265.332" x2="261.441" y2="269.223"/>
		
			<line fill="none" stroke="#000000" stroke-width="2" stroke-linecap="round" stroke-miterlimit="10" x1="256.452" y1="270.66" x2="260.322" y2="264.373"/>
		
			<line fill="none" stroke="#000000" stroke-width="2" stroke-linecap="round" stroke-miterlimit="10" x1="270.626" y1="257.834" x2="269.023" y2="265.083"/>
		
			<line fill="none" stroke="#000000" stroke-width="2" stroke-linecap="round" stroke-miterlimit="10" x1="273.449" y1="262.26" x2="266.24" y2="260.666"/>
		<path fill="none" stroke="#000000" stroke-linecap="round" stroke-miterlimit="10" d="M261.014,274.094
			c0.588-0.693,2.871-2.248,5.701-3.59c2.83-1.341,5.773-3.21,6.592-2.707"/>
		<path fill="#B32016" stroke="#000000" stroke-linecap="round" stroke-miterlimit="10" d="M261.035,274.09
			c0,0-0.159,3.732,3.449,3.406c3.721-0.334,2.666-1.823,2.07-3.529c-0.431-1.23-1.27-2.871,0.159-3.463
			c0.812-0.336-1.228,0.717-3.089,1.661C262.205,272.885,261.035,274.09,261.035,274.09z"/>
		<path fill="#816A30" stroke="#000000" stroke-linecap="round" stroke-miterlimit="10" d="M264.086,275.482
			c0,0-0.42-0.692-0.545-1.075c-0.125-0.382-0.268-1.567-0.268-1.567"/>
	</g>
</g>
<g id="_x31_4">
	<path fill="#ADADAD" stroke="#000000" stroke-miterlimit="10" d="M214.201,227.084c1.527,0,1.758,1.238,1.758,2.764v66.658
		c0,1.525-0.23,0.754-1.758,0.754h-2.01c-1.525,0-1.758,0.771-1.758-0.754v-66.658c0-1.524,0.231-2.764,1.758-2.764H214.201
		L214.201,227.084z"/>
	<path fill="#ADADAD" stroke="#000000" stroke-miterlimit="10" d="M218.641,232.717c0,1.526-1.236,1.76-2.764,1.76H186.65
		c-1.527,0-2.765-0.232-2.765-1.76v-2.01c0-1.525,1.236-1.758,2.765-1.758h29.227c1.527,0,2.764,0.232,2.764,1.758V232.717
		L218.641,232.717z"/>
	<path fill="#ADADAD" stroke="#000000" stroke-miterlimit="10" d="M213.125,244.482c-0.553,0.613-1.133,0.26-1.744-0.293
		l-11.73-10.564c-0.612-0.552-1.024-1.092-0.473-1.705l0.725-0.807c0.554-0.611,1.134-0.258,1.746,0.294l11.729,10.565
		c0.613,0.551,1.024,1.092,0.476,1.702L213.125,244.482z"/>
	<g id="body_1_">
		<path fill="#ADADAD" stroke="#000000" stroke-miterlimit="10" d="M191.063,270.184c0.388-0.785,1.562-0.957,2.277-0.235
			c0.717,0.721,3.234,6.983,3.771,8.176s2.205,2.699,1.719,4.129c-0.484,1.431-1.449,2.791-3.604,2.647
			c-1.48-0.098-0.599-2.646-1.013-2.539c-1.405,0.369-1.569-1.309-1.049-2.553c0.521-1.246-0.037-4.981-0.791-6.393
			C191.619,272.006,190.461,271.406,191.063,270.184z"/>
		<path fill="#ADADAD" stroke="#000000" stroke-miterlimit="10" d="M195.037,282.633c0.803,0.842,1.574,11.211,0.959,11.871
			c-0.615,0.658-1.842,0.811-3.871,0.023c-2.029-0.789-3.908-1.967-3.652-2.855c0.256-0.888,1.062-1.115,1.469-2.395
			c0.406-1.279,0.898-5.131,1.769-5.961S193.953,281.492,195.037,282.633z"/>
		<path fill="#ADADAD" stroke="#000000" stroke-miterlimit="10" d="M184.027,283.627c-0.701,0.928-0.293,11.318,0.393,11.904
			s1.922,0.598,3.85-0.416c1.929-1.014,3.658-2.396,3.306-3.252c-0.354-0.854-1.183-0.986-1.729-2.211
			c-0.552-1.226-1.476-4.996-2.435-5.723C186.453,283.203,184.975,282.371,184.027,283.627z"/>
		<path fill="#939393" stroke="#000000" stroke-miterlimit="10" d="M188.537,268.389c2.176,0.053,4.27,0.084,4.689,1.131
			c0.418,1.047,0.334,3.226,0.67,5.652c0.334,2.43,2.01,6.365-0.42,8.207c-2.429,1.842-6.699,2.01-8.875,0
			c-2.179-2.01-1.256-6.197-1.006-8.291c0.252-2.092-0.503-4.188,0.754-5.568C185.605,268.141,186.707,268.346,188.537,268.389z"/>
	</g>
	<g id="soga_1_">
		<g>
			<path fill="none" stroke="#000000" stroke-width="4" stroke-miterlimit="10" d="M187.266,273.156
				c-4.389,0-7.947-4.104-7.947-9.166c0-4.25,8.988-15.133,7.947-15.133"/>
			<path fill="none" stroke="#4A2F11" stroke-width="3" stroke-miterlimit="10" d="M187.266,273.156
				c-4.389,0-7.947-4.104-7.947-9.166c0-4.25,8.988-15.133,7.947-15.133"/>
		</g>
		<g>
			<path fill="none" stroke="#000000" stroke-width="4" stroke-miterlimit="10" d="M187.266,273.156
				c4.392,0,7.947-4.104,7.947-9.166c0-4.229-9.01-15.133-7.947-15.133"/>
			<path fill="none" stroke="#4A2F11" stroke-width="3" stroke-miterlimit="10" d="M187.266,273.156
				c4.392,0,7.947-4.104,7.947-9.166c0-4.229-9.01-15.133-7.947-15.133"/>
		</g>
		
			<line fill="none" stroke="#000000" stroke-width="4" stroke-linecap="round" stroke-miterlimit="10" x1="187.123" y1="232.215" x2="187.123" y2="244.461"/>
		
			<line fill="none" stroke="#4A2F11" stroke-width="3" stroke-linecap="round" stroke-miterlimit="10" x1="187.123" y1="232.215" x2="187.123" y2="244.461"/>
		<path fill="none" stroke="#000000" stroke-width="4" stroke-linecap="round" stroke-miterlimit="10" d="M184.623,247.58
			c0.824,1.301,4.352,1.17,5.002,0.439"/>
		<path fill="none" stroke="#4A2F11" stroke-width="3" stroke-linecap="round" stroke-miterlimit="10" d="M184.623,247.58
			c0.824,1.301,4.352,1.17,5.002,0.439"/>
		<path fill="none" stroke="#000000" stroke-width="4" stroke-linecap="round" stroke-miterlimit="10" d="M184.512,244.805
			c0.826,0.969,4.352,0.873,5.004,0.328"/>
		<path fill="none" stroke="#4A2F11" stroke-width="3" stroke-linecap="round" stroke-miterlimit="10" d="M184.512,244.805
			c0.826,0.969,4.352,0.873,5.004,0.328"/>
		<path fill="none" stroke="#000000" stroke-width="4" stroke-linecap="round" stroke-miterlimit="10" d="M184.502,241.988
			c0.957,1.207,4.451,0.709,5.021-0.086"/>
		<path fill="none" stroke="#4A2F11" stroke-width="3" stroke-linecap="round" stroke-miterlimit="10" d="M184.502,241.988
			c0.957,1.207,4.451,0.709,5.021-0.086"/>
		<path fill="#ADADAD" stroke="#000000" stroke-miterlimit="10" d="M180.752,276.941c0.051,0.871,1.088,1.209,2.076,0.971
			s2.641-0.676,3.402-1.086c1.151-0.617,3.291-1.145,3.627-2.615c0.336-1.473,0.227-3.137-1.685-4.145
			c-1.313-0.691-1.896,1.942-2.19,1.633c-1.004-1.051-2.023,0.293-2.23,1.627c-0.211,1.334-0.543,1.104-1.932,1.896
			c-0.066,0.036,1.141-0.584,1.141-0.584s0.525-0.316,0.551-0.671c0,0-1.617-1.303-1.717-1.141
			C181.611,273.125,180.736,276.672,180.752,276.941z"/>
	</g>
	<g id="head_1_">
		<path fill="#ADADAD" stroke="#000000" stroke-miterlimit="10" d="M195.143,258.123c3.385,5.502,0.267,10.807-6.908,14.604
			c-7.174,3.797-13.409,4.109-15.762-3.192c-4.502-13.994-3.35-14.408,4.818-17.783
			C184.791,248.648,190.129,249.977,195.143,258.123z"/>
		
			<line fill="none" stroke="#000000" stroke-linecap="round" stroke-miterlimit="10" x1="176.453" y1="270.66" x2="180.322" y2="264.373"/>
		<path fill="none" stroke="#000000" stroke-width="2" stroke-linecap="round" stroke-miterlimit="10" d="M190.627,257.834"/>
		
			<line fill="none" stroke="#000000" stroke-linecap="round" stroke-miterlimit="10" x1="193.449" y1="262.26" x2="186.24" y2="260.666"/>
		<path fill="none" stroke="#000000" stroke-linecap="round" stroke-miterlimit="10" d="M181.014,274.094
			c0.588-0.693,2.871-2.248,5.701-3.59c2.83-1.34,5.773-3.209,6.592-2.707"/>
		<path display="none" fill="#B32016" stroke="#000000" stroke-linecap="round" stroke-miterlimit="10" d="M181.035,274.09
			c0,0-0.158,3.732,3.449,3.406c3.721-0.334,2.666-1.822,2.07-3.529c-0.431-1.23-1.269-2.871,0.159-3.463
			c0.812-0.336-1.228,0.717-3.088,1.662C182.205,272.885,181.035,274.09,181.035,274.09z"/>
		<path display="none" fill="#816A30" stroke="#000000" stroke-linecap="round" stroke-miterlimit="10" d="M184.086,275.482
			c0,0-0.42-0.691-0.545-1.074s-0.268-1.568-0.268-1.568"/>
	</g>
</g>
<g id="_x31_3">
	<path fill="#ADADAD" stroke="#000000" stroke-miterlimit="10" d="M134.201,227.084c1.527,0,1.758,1.238,1.758,2.764v66.658
		c0,1.525-0.23,0.754-1.758,0.754h-2.01c-1.525,0-1.758,0.771-1.758-0.754v-66.658c0-1.524,0.232-2.764,1.758-2.764H134.201
		L134.201,227.084z"/>
	<path fill="#ADADAD" stroke="#000000" stroke-miterlimit="10" d="M138.641,232.717c0,1.526-1.236,1.76-2.764,1.76H106.65
		c-1.527,0-2.764-0.232-2.764-1.76v-2.01c0-1.525,1.236-1.758,2.764-1.758h29.227c1.527,0,2.764,0.232,2.764,1.758V232.717
		L138.641,232.717z"/>
	<path fill="#ADADAD" stroke="#000000" stroke-miterlimit="10" d="M133.125,244.482c-0.553,0.613-1.133,0.26-1.744-0.293
		l-11.73-10.564c-0.613-0.552-1.025-1.092-0.473-1.705l0.725-0.807c0.553-0.611,1.133-0.258,1.746,0.294l11.729,10.565
		c0.613,0.551,1.025,1.092,0.475,1.702L133.125,244.482z"/>
	<g id="body_7_">
		<path fill="#ADADAD" stroke="#000000" stroke-miterlimit="10" d="M111.063,270.184c0.387-0.785,1.561-0.957,2.277-0.235
			c0.716,0.721,3.234,6.983,3.771,8.176c0.537,1.192,2.205,2.699,1.719,4.129c-0.484,1.431-1.449,2.791-3.604,2.647
			c-1.48-0.098-0.598-2.646-1.012-2.539c-1.406,0.369-1.57-1.309-1.049-2.553c0.52-1.246-0.037-4.981-0.791-6.393
			C111.619,272.006,110.461,271.406,111.063,270.184z"/>
		<path fill="#ADADAD" stroke="#000000" stroke-miterlimit="10" d="M115.037,282.633c0.803,0.842,1.574,11.211,0.959,11.871
			c-0.615,0.658-1.842,0.811-3.871,0.023c-2.029-0.789-3.908-1.967-3.652-2.855c0.256-0.888,1.061-1.115,1.469-2.395
			c0.406-1.279,0.898-5.131,1.768-5.961S113.953,281.492,115.037,282.633z"/>
		<path fill="#ADADAD" stroke="#000000" stroke-miterlimit="10" d="M104.027,283.627c-0.701,0.928-0.293,11.318,0.393,11.904
			s1.922,0.598,3.85-0.416s3.658-2.396,3.305-3.252c-0.355-0.854-1.182-0.986-1.73-2.211c-0.551-1.226-1.475-4.996-2.434-5.723
			C106.453,283.203,104.975,282.371,104.027,283.627z"/>
		<path fill="#939393" stroke="#000000" stroke-miterlimit="10" d="M108.537,268.389c2.176,0.053,4.27,0.084,4.689,1.131
			c0.418,1.047,0.334,3.226,0.67,5.652c0.334,2.43,2.01,6.365-0.42,8.207c-2.428,1.842-6.699,2.01-8.875,0
			c-2.178-2.01-1.256-6.197-1.006-8.291c0.252-2.092-0.502-4.188,0.754-5.568C105.605,268.141,106.707,268.346,108.537,268.389z"/>
	</g>
	<g id="soga_7_">
		<g>
			<path fill="none" stroke="#000000" stroke-width="4" stroke-miterlimit="10" d="M107.266,273.156
				c-4.389,0-7.947-4.104-7.947-9.166c0-4.25,8.988-15.133,7.947-15.133"/>
			<path fill="none" stroke="#4A2F11" stroke-width="3" stroke-miterlimit="10" d="M107.266,273.156
				c-4.389,0-7.947-4.104-7.947-9.166c0-4.25,8.988-15.133,7.947-15.133"/>
		</g>
		<g>
			<path fill="none" stroke="#000000" stroke-width="4" stroke-miterlimit="10" d="M107.266,273.156
				c4.391,0,7.947-4.104,7.947-9.166c0-4.229-9.01-15.133-7.947-15.133"/>
			<path fill="none" stroke="#4A2F11" stroke-width="3" stroke-miterlimit="10" d="M107.266,273.156
				c4.391,0,7.947-4.104,7.947-9.166c0-4.229-9.01-15.133-7.947-15.133"/>
		</g>
		
			<line fill="none" stroke="#000000" stroke-width="4" stroke-linecap="round" stroke-miterlimit="10" x1="107.123" y1="232.215" x2="107.123" y2="244.461"/>
		
			<line fill="none" stroke="#4A2F11" stroke-width="3" stroke-linecap="round" stroke-miterlimit="10" x1="107.123" y1="232.215" x2="107.123" y2="244.461"/>
		<path fill="none" stroke="#000000" stroke-width="4" stroke-linecap="round" stroke-miterlimit="10" d="M104.623,247.58
			c0.824,1.301,4.352,1.17,5.002,0.439"/>
		<path fill="none" stroke="#4A2F11" stroke-width="3" stroke-linecap="round" stroke-miterlimit="10" d="M104.623,247.58
			c0.824,1.301,4.352,1.17,5.002,0.439"/>
		<path fill="none" stroke="#000000" stroke-width="4" stroke-linecap="round" stroke-miterlimit="10" d="M104.512,244.805
			c0.826,0.969,4.352,0.873,5.004,0.328"/>
		<path fill="none" stroke="#4A2F11" stroke-width="3" stroke-linecap="round" stroke-miterlimit="10" d="M104.512,244.805
			c0.826,0.969,4.352,0.873,5.004,0.328"/>
		<path fill="none" stroke="#000000" stroke-width="4" stroke-linecap="round" stroke-miterlimit="10" d="M104.502,241.988
			c0.957,1.207,4.451,0.709,5.021-0.086"/>
		<path fill="none" stroke="#4A2F11" stroke-width="3" stroke-linecap="round" stroke-miterlimit="10" d="M104.502,241.988
			c0.957,1.207,4.451,0.709,5.021-0.086"/>
		<path fill="#ADADAD" stroke="#000000" stroke-miterlimit="10" d="M100.752,276.941c0.051,0.871,1.088,1.209,2.076,0.971
			c0.988-0.238,2.641-0.676,3.402-1.086c1.152-0.617,3.291-1.145,3.627-2.615c0.336-1.473,0.227-3.137-1.684-4.145
			c-1.313-0.691-1.895,1.942-2.191,1.633c-1.004-1.051-2.023,0.293-2.23,1.627c-0.211,1.334-0.543,1.104-1.932,1.896
			c-0.066,0.036,1.141-0.584,1.141-0.584s0.525-0.316,0.551-0.671c0,0-1.617-1.303-1.717-1.141
			C101.611,273.125,100.736,276.672,100.752,276.941z"/>
	</g>
	<g id="head_7_">
		<path fill="#ADADAD" stroke="#000000" stroke-miterlimit="10" d="M115.143,258.123c3.385,5.502,0.266,10.807-6.908,14.604
			c-7.174,3.797-13.41,4.109-15.762-3.192c-4.502-13.994-3.35-14.408,4.818-17.783C104.791,248.648,110.129,249.977,115.143,258.123
			z"/>
		
			<line fill="none" stroke="#000000" stroke-linecap="round" stroke-miterlimit="10" x1="96.453" y1="270.66" x2="100.322" y2="264.373"/>
		<path fill="none" stroke="#000000" stroke-width="2" stroke-linecap="round" stroke-miterlimit="10" d="M110.627,257.834"/>
		
			<line fill="none" stroke="#000000" stroke-linecap="round" stroke-miterlimit="10" x1="113.449" y1="262.26" x2="106.24" y2="260.666"/>
		<path display="none" fill="#B32016" stroke="#000000" stroke-linecap="round" stroke-miterlimit="10" d="M101.035,274.09
			c0,0-0.158,3.732,3.449,3.406c3.721-0.334,2.666-1.822,2.07-3.529c-0.43-1.23-1.268-2.871,0.16-3.463
			c0.811-0.336-1.227,0.717-3.088,1.662C102.205,272.885,101.035,274.09,101.035,274.09z"/>
		<path display="none" fill="#816A30" stroke="#000000" stroke-linecap="round" stroke-miterlimit="10" d="M104.086,275.482
			c0,0-0.42-0.691-0.545-1.074s-0.268-1.568-0.268-1.568"/>
	</g>
</g>
<g id="_x31_2">
	<path fill="#ADADAD" stroke="#000000" stroke-miterlimit="10" d="M54.201,227.084c1.527,0,1.758,1.238,1.758,2.764v66.658
		c0,1.525-0.23,0.754-1.758,0.754h-2.01c-1.525,0-1.758,0.771-1.758-0.754v-66.658c0-1.524,0.232-2.764,1.758-2.764H54.201
		L54.201,227.084z"/>
	<path fill="#ADADAD" stroke="#000000" stroke-miterlimit="10" d="M58.641,232.717c0,1.526-1.236,1.76-2.764,1.76H26.65
		c-1.527,0-2.764-0.232-2.764-1.76v-2.01c0-1.525,1.236-1.758,2.764-1.758h29.227c1.527,0,2.764,0.232,2.764,1.758V232.717z"/>
	<path fill="#ADADAD" stroke="#000000" stroke-miterlimit="10" d="M53.125,244.482c-0.553,0.613-1.133,0.26-1.744-0.293
		l-11.73-10.564c-0.613-0.552-1.025-1.092-0.473-1.705l0.725-0.807c0.553-0.611,1.133-0.258,1.746,0.294l11.729,10.565
		c0.613,0.551,1.025,1.092,0.475,1.702L53.125,244.482z"/>
	<g id="body_17_">
		<path fill="#ADADAD" stroke="#000000" stroke-miterlimit="10" d="M31.063,270.184c0.387-0.785,1.561-0.957,2.277-0.235
			c0.716,0.721,3.234,6.983,3.771,8.176c0.537,1.192,2.205,2.699,1.719,4.129c-0.484,1.431-1.449,2.791-3.604,2.647
			c-1.48-0.098-0.598-2.646-1.012-2.539c-1.406,0.369-1.57-1.309-1.049-2.553c0.52-1.246-0.037-4.981-0.791-6.393
			C31.619,272.006,30.461,271.406,31.063,270.184z"/>
		<path fill="#ADADAD" stroke="#000000" stroke-miterlimit="10" d="M35.037,282.633c0.803,0.842,1.574,11.211,0.959,11.871
			c-0.615,0.658-1.842,0.811-3.871,0.023c-2.029-0.789-3.908-1.967-3.652-2.855c0.256-0.888,1.061-1.115,1.469-2.395
			c0.406-1.279,0.898-5.131,1.768-5.961S33.953,281.492,35.037,282.633z"/>
		<path fill="#ADADAD" stroke="#000000" stroke-miterlimit="10" d="M24.027,283.627c-0.701,0.928-0.293,11.318,0.393,11.904
			s1.922,0.598,3.85-0.416s3.658-2.396,3.305-3.252c-0.355-0.854-1.182-0.986-1.73-2.211c-0.551-1.226-1.475-4.996-2.434-5.723
			C26.453,283.203,24.975,282.371,24.027,283.627z"/>
		<path fill="#939393" stroke="#000000" stroke-miterlimit="10" d="M28.537,268.389c2.176,0.053,4.27,0.084,4.689,1.131
			c0.418,1.047,0.334,3.226,0.67,5.652c0.334,2.43,2.01,6.365-0.42,8.207c-2.428,1.842-6.699,2.01-8.875,0
			c-2.178-2.01-1.256-6.197-1.006-8.291c0.252-2.092-0.502-4.188,0.754-5.568C25.605,268.141,26.707,268.346,28.537,268.389z"/>
	</g>
	<g id="soga_17_">
		<g>
			<path fill="none" stroke="#000000" stroke-width="4" stroke-miterlimit="10" d="M27.266,273.156
				c-4.389,0-7.947-4.104-7.947-9.166c0-4.25,8.988-15.133,7.947-15.133"/>
			<path fill="none" stroke="#4A2F11" stroke-width="3" stroke-miterlimit="10" d="M27.266,273.156
				c-4.389,0-7.947-4.104-7.947-9.166c0-4.25,8.988-15.133,7.947-15.133"/>
		</g>
		<g>
			<path fill="none" stroke="#000000" stroke-width="4" stroke-miterlimit="10" d="M27.266,273.156c4.391,0,7.947-4.104,7.947-9.166
				c0-4.229-9.01-15.133-7.947-15.133"/>
			<path fill="none" stroke="#4A2F11" stroke-width="3" stroke-miterlimit="10" d="M27.266,273.156c4.391,0,7.947-4.104,7.947-9.166
				c0-4.229-9.01-15.133-7.947-15.133"/>
		</g>
		
			<line fill="none" stroke="#000000" stroke-width="4" stroke-linecap="round" stroke-miterlimit="10" x1="27.123" y1="232.215" x2="27.123" y2="244.461"/>
		
			<line fill="none" stroke="#4A2F11" stroke-width="3" stroke-linecap="round" stroke-miterlimit="10" x1="27.123" y1="232.215" x2="27.123" y2="244.461"/>
		<path fill="none" stroke="#000000" stroke-width="4" stroke-linecap="round" stroke-miterlimit="10" d="M24.623,247.58
			c0.824,1.301,4.352,1.17,5.002,0.439"/>
		<path fill="none" stroke="#4A2F11" stroke-width="3" stroke-linecap="round" stroke-miterlimit="10" d="M24.623,247.58
			c0.824,1.301,4.352,1.17,5.002,0.439"/>
		<path fill="none" stroke="#000000" stroke-width="4" stroke-linecap="round" stroke-miterlimit="10" d="M24.512,244.805
			c0.826,0.969,4.352,0.873,5.004,0.328"/>
		<path fill="none" stroke="#4A2F11" stroke-width="3" stroke-linecap="round" stroke-miterlimit="10" d="M24.512,244.805
			c0.826,0.969,4.352,0.873,5.004,0.328"/>
		<path fill="none" stroke="#000000" stroke-width="4" stroke-linecap="round" stroke-miterlimit="10" d="M24.502,241.988
			c0.957,1.207,4.451,0.709,5.021-0.086"/>
		<path fill="none" stroke="#4A2F11" stroke-width="3" stroke-linecap="round" stroke-miterlimit="10" d="M24.502,241.988
			c0.957,1.207,4.451,0.709,5.021-0.086"/>
		<path fill="#ADADAD" stroke="#000000" stroke-miterlimit="10" d="M20.752,276.941c0.051,0.871,1.088,1.209,2.076,0.971
			c0.988-0.238,2.641-0.676,3.402-1.086c1.152-0.617,3.291-1.145,3.627-2.615c0.336-1.473,0.227-3.137-1.684-4.145
			c-1.313-0.691-1.895,1.942-2.191,1.633c-1.004-1.051-2.023,0.293-2.23,1.627c-0.211,1.334-0.543,1.104-1.932,1.896
			c-0.066,0.036,1.141-0.584,1.141-0.584s0.525-0.316,0.551-0.671c0,0-1.617-1.303-1.717-1.141
			C21.611,273.125,20.736,276.672,20.752,276.941z"/>
	</g>
	<g id="head_17_">
		<path fill="#ADADAD" stroke="#000000" stroke-miterlimit="10" d="M35.143,258.123c3.385,5.502,0.266,10.807-6.908,14.604
			c-7.174,3.797-13.41,4.109-15.762-3.192c-4.502-13.994-3.35-14.408,4.818-17.783C24.791,248.648,30.129,249.977,35.143,258.123z"
			/>
		<path fill="none" stroke="#000000" stroke-width="2" stroke-linecap="round" stroke-miterlimit="10" d="M30.627,257.834"/>
		<path display="none" fill="#B32016" stroke="#000000" stroke-linecap="round" stroke-miterlimit="10" d="M21.035,274.09
			c0,0-0.158,3.732,3.449,3.406c3.721-0.334,2.666-1.822,2.07-3.529c-0.43-1.23-1.268-2.871,0.16-3.463
			c0.811-0.336-1.227,0.717-3.088,1.662C22.205,272.885,21.035,274.09,21.035,274.09z"/>
		<path display="none" fill="#816A30" stroke="#000000" stroke-linecap="round" stroke-miterlimit="10" d="M24.086,275.482
			c0,0-0.42-0.691-0.545-1.074s-0.268-1.568-0.268-1.568"/>
	</g>
</g>
<g id="_x31_1">
	<path fill="#ADADAD" stroke="#000000" stroke-miterlimit="10" d="M294.201,153.084c1.527,0,1.758,1.238,1.758,2.764v66.658
		c0,1.525-0.23,0.754-1.758,0.754h-2.01c-1.525,0-1.758,0.771-1.758-0.754v-66.658c0-1.524,0.231-2.764,1.758-2.764H294.201z"/>
	<path fill="#ADADAD" stroke="#000000" stroke-miterlimit="10" d="M298.641,158.717c0,1.526-1.236,1.76-2.764,1.76H266.65
		c-1.527,0-2.765-0.232-2.765-1.76v-2.01c0-1.525,1.236-1.758,2.765-1.758h29.227c1.527,0,2.764,0.232,2.764,1.758V158.717z"/>
	<path fill="#ADADAD" stroke="#000000" stroke-miterlimit="10" d="M293.125,170.482c-0.553,0.613-1.133,0.26-1.744-0.293
		l-11.73-10.564c-0.612-0.552-1.024-1.092-0.473-1.705l0.725-0.807c0.554-0.611,1.134-0.258,1.746,0.294l11.729,10.565
		c0.613,0.551,1.024,1.092,0.476,1.702L293.125,170.482z"/>
	<g id="body_18_">
		<path fill="#ADADAD" stroke="#000000" stroke-miterlimit="10" d="M271.063,196.184c0.388-0.785,1.562-0.957,2.277-0.235
			c0.717,0.721,3.234,6.983,3.771,8.176s2.205,2.699,1.719,4.129c-0.484,1.431-1.449,2.791-3.604,2.647
			c-1.48-0.098-0.599-2.646-1.013-2.539c-1.405,0.369-1.569-1.309-1.049-2.553c0.521-1.246-0.037-4.981-0.791-6.393
			C271.619,198.006,270.461,197.406,271.063,196.184z"/>
		<path fill="#ADADAD" stroke="#000000" stroke-miterlimit="10" d="M264.027,209.627c-0.701,0.928-0.293,11.318,0.393,11.904
			s1.922,0.598,3.85-0.416c1.929-1.014,3.658-2.396,3.306-3.252c-0.354-0.854-1.183-0.986-1.729-2.211
			c-0.552-1.226-1.476-4.996-2.435-5.723C266.453,209.203,264.975,208.371,264.027,209.627z"/>
		<path fill="#939393" stroke="#000000" stroke-miterlimit="10" d="M268.537,194.389c2.176,0.053,4.27,0.084,4.689,1.131
			c0.418,1.047,0.334,3.226,0.67,5.652c0.334,2.43,2.01,6.365-0.42,8.207c-2.429,1.842-6.699,2.01-8.875,0
			c-2.179-2.01-1.257-6.197-1.007-8.291c0.253-2.092-0.502-4.188,0.755-5.568C265.605,194.141,266.707,194.346,268.537,194.389z"/>
	</g>
	<g id="soga_18_">
		<g>
			<path fill="none" stroke="#000000" stroke-width="4" stroke-miterlimit="10" d="M267.266,199.156
				c-4.389,0-7.947-4.104-7.947-9.166c0-4.25,8.988-15.133,7.947-15.133"/>
			<path fill="none" stroke="#4A2F11" stroke-width="3" stroke-miterlimit="10" d="M267.266,199.156
				c-4.389,0-7.947-4.104-7.947-9.166c0-4.25,8.988-15.133,7.947-15.133"/>
		</g>
		<g>
			<path fill="none" stroke="#000000" stroke-width="4" stroke-miterlimit="10" d="M267.266,199.156
				c4.392,0,7.947-4.104,7.947-9.166c0-4.229-9.01-15.133-7.947-15.133"/>
			<path fill="none" stroke="#4A2F11" stroke-width="3" stroke-miterlimit="10" d="M267.266,199.156
				c4.392,0,7.947-4.104,7.947-9.166c0-4.229-9.01-15.133-7.947-15.133"/>
		</g>
		
			<line fill="none" stroke="#000000" stroke-width="4" stroke-linecap="round" stroke-miterlimit="10" x1="267.123" y1="158.215" x2="267.123" y2="170.461"/>
		
			<line fill="none" stroke="#4A2F11" stroke-width="3" stroke-linecap="round" stroke-miterlimit="10" x1="267.123" y1="158.215" x2="267.123" y2="170.461"/>
		<path fill="none" stroke="#000000" stroke-width="4" stroke-linecap="round" stroke-miterlimit="10" d="M264.623,173.58
			c0.824,1.301,4.352,1.17,5.002,0.439"/>
		<path fill="none" stroke="#4A2F11" stroke-width="3" stroke-linecap="round" stroke-miterlimit="10" d="M264.623,173.58
			c0.824,1.301,4.352,1.17,5.002,0.439"/>
		<path fill="none" stroke="#000000" stroke-width="4" stroke-linecap="round" stroke-miterlimit="10" d="M264.512,170.805
			c0.826,0.969,4.352,0.873,5.004,0.328"/>
		<path fill="none" stroke="#4A2F11" stroke-width="3" stroke-linecap="round" stroke-miterlimit="10" d="M264.512,170.805
			c0.826,0.969,4.352,0.873,5.004,0.328"/>
		<path fill="none" stroke="#000000" stroke-width="4" stroke-linecap="round" stroke-miterlimit="10" d="M264.502,167.988
			c0.957,1.207,4.451,0.709,5.021-0.086"/>
		<path fill="none" stroke="#4A2F11" stroke-width="3" stroke-linecap="round" stroke-miterlimit="10" d="M264.502,167.988
			c0.957,1.207,4.451,0.709,5.021-0.086"/>
		<path fill="#ADADAD" stroke="#000000" stroke-miterlimit="10" d="M260.752,202.941c0.051,0.871,1.088,1.209,2.076,0.971
			s2.641-0.676,3.402-1.086c1.151-0.617,3.291-1.145,3.627-2.615c0.336-1.473,0.227-3.137-1.685-4.145
			c-1.313-0.691-1.896,1.942-2.19,1.633c-1.004-1.051-2.023,0.293-2.23,1.627c-0.211,1.334-0.543,1.104-1.932,1.896
			c-0.066,0.036,1.141-0.584,1.141-0.584s0.525-0.316,0.551-0.671c0,0-1.617-1.303-1.717-1.141
			C261.611,199.125,260.736,202.672,260.752,202.941z"/>
	</g>
	<g id="head_18_">
		<path fill="#ADADAD" stroke="#000000" stroke-miterlimit="10" d="M275.143,184.123c3.385,5.502,0.267,10.807-6.908,14.604
			c-7.174,3.797-13.409,4.109-15.762-3.192c-4.502-13.994-3.35-14.408,4.818-17.783
			C264.791,174.648,270.129,175.977,275.143,184.123z"/>
		<path fill="none" stroke="#000000" stroke-width="2" stroke-linecap="round" stroke-miterlimit="10" d="M270.627,183.834"/>
		<path display="none" fill="#B32016" stroke="#000000" stroke-linecap="round" stroke-miterlimit="10" d="M261.035,200.09
			c0,0-0.158,3.732,3.449,3.406c3.721-0.334,2.666-1.822,2.07-3.529c-0.431-1.23-1.269-2.871,0.159-3.463
			c0.812-0.336-1.228,0.717-3.088,1.662C262.205,198.885,261.035,200.09,261.035,200.09z"/>
		<path display="none" fill="#816A30" stroke="#000000" stroke-linecap="round" stroke-miterlimit="10" d="M264.086,201.482
			c0,0-0.42-0.691-0.545-1.074s-0.268-1.568-0.268-1.568"/>
	</g>
</g>
<g id="_x31_0">
	<path fill="#ADADAD" stroke="#000000" stroke-miterlimit="10" d="M214.201,153.084c1.527,0,1.758,1.238,1.758,2.764v66.658
		c0,1.525-0.23,0.754-1.758,0.754h-2.01c-1.525,0-1.758,0.771-1.758-0.754v-66.658c0-1.524,0.231-2.764,1.758-2.764H214.201z"/>
	<path fill="#ADADAD" stroke="#000000" stroke-miterlimit="10" d="M218.641,158.717c0,1.526-1.236,1.76-2.764,1.76H186.65
		c-1.527,0-2.765-0.232-2.765-1.76v-2.01c0-1.525,1.236-1.758,2.765-1.758h29.227c1.527,0,2.764,0.232,2.764,1.758V158.717
		L218.641,158.717z"/>
	<path fill="#ADADAD" stroke="#000000" stroke-miterlimit="10" d="M213.125,170.482c-0.553,0.613-1.133,0.26-1.744-0.293
		l-11.73-10.564c-0.612-0.552-1.024-1.092-0.473-1.705l0.725-0.807c0.554-0.611,1.134-0.258,1.746,0.294l11.729,10.565
		c0.613,0.551,1.024,1.092,0.476,1.702L213.125,170.482z"/>
	<g id="body_6_">
		<path fill="#ADADAD" stroke="#000000" stroke-miterlimit="10" d="M191.063,196.184c0.388-0.785,1.562-0.957,2.277-0.235
			c0.717,0.721,3.234,6.983,3.771,8.176s2.205,2.699,1.719,4.129c-0.484,1.431-1.449,2.791-3.604,2.647
			c-1.48-0.098-0.599-2.646-1.013-2.539c-1.405,0.369-1.569-1.309-1.049-2.553c0.521-1.246-0.037-4.981-0.791-6.393
			C191.619,198.006,190.461,197.406,191.063,196.184z"/>
		<path fill="#939393" stroke="#000000" stroke-miterlimit="10" d="M188.537,194.389c2.176,0.053,4.27,0.084,4.689,1.131
			c0.418,1.047,0.334,3.226,0.67,5.652c0.334,2.43,2.01,6.365-0.42,8.207c-2.429,1.842-6.699,2.01-8.875,0
			c-2.179-2.01-1.256-6.197-1.006-8.291c0.252-2.092-0.503-4.188,0.754-5.568C185.605,194.141,186.707,194.346,188.537,194.389z"/>
	</g>
	<g id="soga_6_">
		<g>
			<path fill="none" stroke="#000000" stroke-width="4" stroke-miterlimit="10" d="M187.266,199.156
				c-4.389,0-7.947-4.104-7.947-9.166c0-4.25,8.988-15.133,7.947-15.133"/>
			<path fill="none" stroke="#4A2F11" stroke-width="3" stroke-miterlimit="10" d="M187.266,199.156
				c-4.389,0-7.947-4.104-7.947-9.166c0-4.25,8.988-15.133,7.947-15.133"/>
		</g>
		<g>
			<path fill="none" stroke="#000000" stroke-width="4" stroke-miterlimit="10" d="M187.266,199.156
				c4.392,0,7.947-4.104,7.947-9.166c0-4.229-9.01-15.133-7.947-15.133"/>
			<path fill="none" stroke="#4A2F11" stroke-width="3" stroke-miterlimit="10" d="M187.266,199.156
				c4.392,0,7.947-4.104,7.947-9.166c0-4.229-9.01-15.133-7.947-15.133"/>
		</g>
		
			<line fill="none" stroke="#000000" stroke-width="4" stroke-linecap="round" stroke-miterlimit="10" x1="187.123" y1="158.215" x2="187.123" y2="170.461"/>
		
			<line fill="none" stroke="#4A2F11" stroke-width="3" stroke-linecap="round" stroke-miterlimit="10" x1="187.123" y1="158.215" x2="187.123" y2="170.461"/>
		<path fill="none" stroke="#000000" stroke-width="4" stroke-linecap="round" stroke-miterlimit="10" d="M184.623,173.58
			c0.824,1.301,4.352,1.17,5.002,0.439"/>
		<path fill="none" stroke="#4A2F11" stroke-width="3" stroke-linecap="round" stroke-miterlimit="10" d="M184.623,173.58
			c0.824,1.301,4.352,1.17,5.002,0.439"/>
		<path fill="none" stroke="#000000" stroke-width="4" stroke-linecap="round" stroke-miterlimit="10" d="M184.512,170.805
			c0.826,0.969,4.352,0.873,5.004,0.328"/>
		<path fill="none" stroke="#4A2F11" stroke-width="3" stroke-linecap="round" stroke-miterlimit="10" d="M184.512,170.805
			c0.826,0.969,4.352,0.873,5.004,0.328"/>
		<path fill="none" stroke="#000000" stroke-width="4" stroke-linecap="round" stroke-miterlimit="10" d="M184.502,167.988
			c0.957,1.207,4.451,0.709,5.021-0.086"/>
		<path fill="none" stroke="#4A2F11" stroke-width="3" stroke-linecap="round" stroke-miterlimit="10" d="M184.502,167.988
			c0.957,1.207,4.451,0.709,5.021-0.086"/>
		<path fill="#ADADAD" stroke="#000000" stroke-miterlimit="10" d="M180.752,202.941c0.051,0.871,1.088,1.209,2.076,0.971
			s2.641-0.676,3.402-1.086c1.151-0.617,3.291-1.145,3.627-2.615c0.336-1.473,0.227-3.137-1.685-4.145
			c-1.313-0.691-1.896,1.942-2.19,1.633c-1.004-1.051-2.023,0.293-2.23,1.627c-0.211,1.334-0.543,1.104-1.932,1.896
			c-0.066,0.036,1.141-0.584,1.141-0.584s0.525-0.316,0.551-0.671c0,0-1.617-1.303-1.717-1.141
			C181.611,199.125,180.736,202.672,180.752,202.941z"/>
	</g>
	<g id="head_6_">
		<path fill="#ADADAD" stroke="#000000" stroke-miterlimit="10" d="M195.143,184.123c3.385,5.502,0.267,10.807-6.908,14.604
			c-7.174,3.797-13.409,4.109-15.762-3.192c-4.502-13.994-3.35-14.408,4.818-17.783
			C184.791,174.648,190.129,175.977,195.143,184.123z"/>
		<path fill="none" stroke="#000000" stroke-width="2" stroke-linecap="round" stroke-miterlimit="10" d="M190.627,183.834"/>
		<path display="none" fill="#B32016" stroke="#000000" stroke-linecap="round" stroke-miterlimit="10" d="M181.035,200.09
			c0,0-0.158,3.732,3.449,3.406c3.721-0.334,2.666-1.822,2.07-3.529c-0.431-1.23-1.269-2.871,0.159-3.463
			c0.812-0.336-1.228,0.717-3.088,1.662C182.205,198.885,181.035,200.09,181.035,200.09z"/>
		<path display="none" fill="#816A30" stroke="#000000" stroke-linecap="round" stroke-miterlimit="10" d="M184.086,201.482
			c0,0-0.42-0.691-0.545-1.074s-0.268-1.568-0.268-1.568"/>
	</g>
</g>
<g id="_x39_">
	<path fill="#ADADAD" stroke="#000000" stroke-miterlimit="10" d="M134.201,153.084c1.527,0,1.758,1.238,1.758,2.764v66.658
		c0,1.525-0.23,0.754-1.758,0.754h-2.01c-1.525,0-1.758,0.771-1.758-0.754v-66.658c0-1.524,0.232-2.764,1.758-2.764H134.201z"/>
	<path fill="#ADADAD" stroke="#000000" stroke-miterlimit="10" d="M138.641,158.717c0,1.526-1.236,1.76-2.764,1.76H106.65
		c-1.527,0-2.764-0.232-2.764-1.76v-2.01c0-1.525,1.236-1.758,2.764-1.758h29.227c1.527,0,2.764,0.232,2.764,1.758V158.717
		L138.641,158.717z"/>
	<path fill="#ADADAD" stroke="#000000" stroke-miterlimit="10" d="M133.125,170.482c-0.553,0.613-1.133,0.26-1.744-0.293
		l-11.73-10.564c-0.613-0.552-1.025-1.092-0.473-1.705l0.725-0.807c0.553-0.611,1.133-0.258,1.746,0.294l11.729,10.565
		c0.613,0.551,1.025,1.092,0.475,1.702L133.125,170.482z"/>
	<g id="body_5_">
		<path fill="#939393" stroke="#000000" stroke-miterlimit="10" d="M108.537,194.389c2.176,0.053,4.27,0.084,4.689,1.131
			c0.418,1.047,0.334,3.226,0.67,5.652c0.334,2.43,2.01,6.365-0.42,8.207c-2.428,1.842-6.699,2.01-8.875,0
			c-2.178-2.01-1.256-6.197-1.006-8.291c0.252-2.092-0.502-4.188,0.754-5.568C105.605,194.141,106.707,194.346,108.537,194.389z"/>
	</g>
	<g id="soga_5_">
		<g>
			<path fill="none" stroke="#000000" stroke-width="4" stroke-miterlimit="10" d="M107.266,199.156
				c-4.389,0-7.947-4.104-7.947-9.166c0-4.25,8.988-15.133,7.947-15.133"/>
			<path fill="none" stroke="#4A2F11" stroke-width="3" stroke-miterlimit="10" d="M107.266,199.156
				c-4.389,0-7.947-4.104-7.947-9.166c0-4.25,8.988-15.133,7.947-15.133"/>
		</g>
		<g>
			<path fill="none" stroke="#000000" stroke-width="4" stroke-miterlimit="10" d="M107.266,199.156
				c4.391,0,7.947-4.104,7.947-9.166c0-4.229-9.01-15.133-7.947-15.133"/>
			<path fill="none" stroke="#4A2F11" stroke-width="3" stroke-miterlimit="10" d="M107.266,199.156
				c4.391,0,7.947-4.104,7.947-9.166c0-4.229-9.01-15.133-7.947-15.133"/>
		</g>
		
			<line fill="none" stroke="#000000" stroke-width="4" stroke-linecap="round" stroke-miterlimit="10" x1="107.123" y1="158.215" x2="107.123" y2="170.461"/>
		
			<line fill="none" stroke="#4A2F11" stroke-width="3" stroke-linecap="round" stroke-miterlimit="10" x1="107.123" y1="158.215" x2="107.123" y2="170.461"/>
		<path fill="none" stroke="#000000" stroke-width="4" stroke-linecap="round" stroke-miterlimit="10" d="M104.623,173.58
			c0.824,1.301,4.352,1.17,5.002,0.439"/>
		<path fill="none" stroke="#4A2F11" stroke-width="3" stroke-linecap="round" stroke-miterlimit="10" d="M104.623,173.58
			c0.824,1.301,4.352,1.17,5.002,0.439"/>
		<path fill="none" stroke="#000000" stroke-width="4" stroke-linecap="round" stroke-miterlimit="10" d="M104.512,170.805
			c0.826,0.969,4.352,0.873,5.004,0.328"/>
		<path fill="none" stroke="#4A2F11" stroke-width="3" stroke-linecap="round" stroke-miterlimit="10" d="M104.512,170.805
			c0.826,0.969,4.352,0.873,5.004,0.328"/>
		<path fill="none" stroke="#000000" stroke-width="4" stroke-linecap="round" stroke-miterlimit="10" d="M104.502,167.988
			c0.957,1.207,4.451,0.709,5.021-0.086"/>
		<path fill="none" stroke="#4A2F11" stroke-width="3" stroke-linecap="round" stroke-miterlimit="10" d="M104.502,167.988
			c0.957,1.207,4.451,0.709,5.021-0.086"/>
		<path fill="#ADADAD" stroke="#000000" stroke-miterlimit="10" d="M100.752,202.941c0.051,0.871,1.088,1.209,2.076,0.971
			c0.988-0.238,2.641-0.676,3.402-1.086c1.152-0.617,3.291-1.145,3.627-2.615c0.336-1.473,0.227-3.137-1.684-4.145
			c-1.313-0.691-1.895,1.942-2.191,1.633c-1.004-1.051-2.023,0.293-2.23,1.627c-0.211,1.334-0.543,1.104-1.932,1.896
			c-0.066,0.036,1.141-0.584,1.141-0.584s0.525-0.316,0.551-0.671c0,0-1.617-1.303-1.717-1.141
			C101.611,199.125,100.736,202.672,100.752,202.941z"/>
	</g>
	<g id="head_5_">
		<path fill="#ADADAD" stroke="#000000" stroke-miterlimit="10" d="M115.143,184.123c3.385,5.502,0.266,10.807-6.908,14.604
			c-7.174,3.797-13.41,4.109-15.762-3.192c-4.502-13.994-3.35-14.408,4.818-17.783C104.791,174.648,110.129,175.977,115.143,184.123
			z"/>
		<path fill="none" stroke="#000000" stroke-width="2" stroke-linecap="round" stroke-miterlimit="10" d="M110.627,183.834"/>
		<path display="none" fill="#B32016" stroke="#000000" stroke-linecap="round" stroke-miterlimit="10" d="M101.035,200.09
			c0,0-0.158,3.732,3.449,3.406c3.721-0.334,2.666-1.822,2.07-3.529c-0.43-1.23-1.268-2.871,0.16-3.463
			c0.811-0.336-1.227,0.717-3.088,1.662C102.205,198.885,101.035,200.09,101.035,200.09z"/>
		<path display="none" fill="#816A30" stroke="#000000" stroke-linecap="round" stroke-miterlimit="10" d="M104.086,201.482
			c0,0-0.42-0.691-0.545-1.074s-0.268-1.568-0.268-1.568"/>
	</g>
</g>
<g id="_x38_">
	<path fill="#ADADAD" stroke="#000000" stroke-miterlimit="10" d="M54.201,153.084c1.527,0,1.758,1.238,1.758,2.764v66.658
		c0,1.525-0.23,0.754-1.758,0.754h-2.01c-1.525,0-1.758,0.771-1.758-0.754v-66.658c0-1.524,0.232-2.764,1.758-2.764H54.201z"/>
	<path fill="#ADADAD" stroke="#000000" stroke-miterlimit="10" d="M58.641,158.717c0,1.526-1.236,1.76-2.764,1.76H26.65
		c-1.527,0-2.764-0.232-2.764-1.76v-2.01c0-1.525,1.236-1.758,2.764-1.758h29.227c1.527,0,2.764,0.232,2.764,1.758V158.717z"/>
	<path fill="#ADADAD" stroke="#000000" stroke-miterlimit="10" d="M53.125,170.482c-0.553,0.613-1.133,0.26-1.744-0.293
		l-11.73-10.564c-0.613-0.552-1.025-1.092-0.473-1.705l0.725-0.807c0.553-0.611,1.133-0.258,1.746,0.294l11.729,10.565
		c0.613,0.551,1.025,1.092,0.475,1.702L53.125,170.482z"/>
	<g id="body_4_">
		<path fill="#939393" stroke="#000000" stroke-miterlimit="10" d="M28.537,194.389c2.176,0.053,4.27,0.084,4.689,1.131
			c0.418,1.047,0.334,3.226,0.67,5.652c0.334,2.43,2.01,6.365-0.42,8.207c-2.428,1.842-6.699,2.01-8.875,0
			c-2.178-2.01-1.256-6.197-1.006-8.291c0.252-2.092-0.502-4.188,0.754-5.568C25.605,194.141,26.707,194.346,28.537,194.389z"/>
	</g>
	<g id="soga_4_">
		<g>
			<path fill="none" stroke="#000000" stroke-width="4" stroke-miterlimit="10" d="M27.266,199.156
				c-4.389,0-7.947-4.104-7.947-9.166c0-4.25,8.988-15.133,7.947-15.133"/>
			<path fill="none" stroke="#4A2F11" stroke-width="3" stroke-miterlimit="10" d="M27.266,199.156
				c-4.389,0-7.947-4.104-7.947-9.166c0-4.25,8.988-15.133,7.947-15.133"/>
		</g>
		<g>
			<path fill="none" stroke="#000000" stroke-width="4" stroke-miterlimit="10" d="M27.266,199.156c4.391,0,7.947-4.104,7.947-9.166
				c0-4.229-9.01-15.133-7.947-15.133"/>
			<path fill="none" stroke="#4A2F11" stroke-width="3" stroke-miterlimit="10" d="M27.266,199.156c4.391,0,7.947-4.104,7.947-9.166
				c0-4.229-9.01-15.133-7.947-15.133"/>
		</g>
		
			<line fill="none" stroke="#000000" stroke-width="4" stroke-linecap="round" stroke-miterlimit="10" x1="27.123" y1="158.215" x2="27.123" y2="170.461"/>
		
			<line fill="none" stroke="#4A2F11" stroke-width="3" stroke-linecap="round" stroke-miterlimit="10" x1="27.123" y1="158.215" x2="27.123" y2="170.461"/>
		<path fill="none" stroke="#000000" stroke-width="4" stroke-linecap="round" stroke-miterlimit="10" d="M24.623,173.58
			c0.824,1.301,4.352,1.17,5.002,0.439"/>
		<path fill="none" stroke="#4A2F11" stroke-width="3" stroke-linecap="round" stroke-miterlimit="10" d="M24.623,173.58
			c0.824,1.301,4.352,1.17,5.002,0.439"/>
		<path fill="none" stroke="#000000" stroke-width="4" stroke-linecap="round" stroke-miterlimit="10" d="M24.512,170.805
			c0.826,0.969,4.352,0.873,5.004,0.328"/>
		<path fill="none" stroke="#4A2F11" stroke-width="3" stroke-linecap="round" stroke-miterlimit="10" d="M24.512,170.805
			c0.826,0.969,4.352,0.873,5.004,0.328"/>
		<path fill="none" stroke="#000000" stroke-width="4" stroke-linecap="round" stroke-miterlimit="10" d="M24.502,167.988
			c0.957,1.207,4.451,0.709,5.021-0.086"/>
		<path fill="none" stroke="#4A2F11" stroke-width="3" stroke-linecap="round" stroke-miterlimit="10" d="M24.502,167.988
			c0.957,1.207,4.451,0.709,5.021-0.086"/>
	</g>
	<g id="head_4_">
		<path fill="#ADADAD" stroke="#000000" stroke-miterlimit="10" d="M35.143,184.123c3.385,5.502,0.266,10.807-6.908,14.604
			c-7.174,3.797-13.41,4.109-15.762-3.192c-4.502-13.994-3.35-14.408,4.818-17.783C24.791,174.648,30.129,175.977,35.143,184.123z"
			/>
		<path fill="none" stroke="#000000" stroke-width="2" stroke-linecap="round" stroke-miterlimit="10" d="M30.627,183.834"/>
		<path display="none" fill="#B32016" stroke="#000000" stroke-linecap="round" stroke-miterlimit="10" d="M21.035,200.09
			c0,0-0.158,3.732,3.449,3.406c3.721-0.334,2.666-1.822,2.07-3.529c-0.43-1.23-1.268-2.871,0.16-3.463
			c0.811-0.336-1.227,0.717-3.088,1.662C22.205,198.885,21.035,200.09,21.035,200.09z"/>
		<path display="none" fill="#816A30" stroke="#000000" stroke-linecap="round" stroke-miterlimit="10" d="M24.086,201.482
			c0,0-0.42-0.691-0.545-1.074s-0.268-1.568-0.268-1.568"/>
	</g>
</g>
<g id="_x37_">
	<path fill="#ADADAD" stroke="#000000" stroke-miterlimit="10" d="M294.201,79.084c1.525,0,1.758,1.237,1.758,2.764v66.658
		c0,1.525-0.23,0.754-1.758,0.754h-2.01c-1.525,0-1.76,0.771-1.76-0.754V81.848c0-1.526,0.233-2.764,1.76-2.764H294.201z"/>
	<path fill="#ADADAD" stroke="#000000" stroke-miterlimit="10" d="M298.641,84.717c0,1.525-1.236,1.758-2.764,1.758H266.65
		c-1.527,0-2.765-0.232-2.765-1.758v-2.01c0-1.526,1.236-1.759,2.765-1.759h29.227c1.525,0,2.764,0.232,2.764,1.759V84.717z"/>
	<path fill="#ADADAD" stroke="#000000" stroke-miterlimit="10" d="M293.124,96.482c-0.552,0.613-1.132,0.259-1.744-0.293
		L279.65,85.625c-0.613-0.553-1.025-1.092-0.475-1.705l0.727-0.807c0.553-0.612,1.133-0.258,1.744,0.293l11.729,10.565
		c0.613,0.552,1.024,1.092,0.474,1.704L293.124,96.482z"/>
	<g id="soga_11_">
		<g>
			<path fill="none" stroke="#000000" stroke-width="4" stroke-miterlimit="10" d="M267.266,125.156
				c-4.39,0-7.947-4.104-7.947-9.166c0-4.251,8.988-15.133,7.947-15.133"/>
			<path fill="none" stroke="#4A2F11" stroke-width="3" stroke-miterlimit="10" d="M267.266,125.156
				c-4.39,0-7.947-4.104-7.947-9.166c0-4.251,8.988-15.133,7.947-15.133"/>
		</g>
		<g>
			<path fill="none" stroke="#000000" stroke-width="4" stroke-miterlimit="10" d="M267.266,125.156
				c4.391,0,7.947-4.104,7.947-9.166c0-4.229-9.011-15.133-7.947-15.133"/>
			<path fill="none" stroke="#4A2F11" stroke-width="3" stroke-miterlimit="10" d="M267.266,125.156
				c4.391,0,7.947-4.104,7.947-9.166c0-4.229-9.011-15.133-7.947-15.133"/>
		</g>
		
			<line fill="none" stroke="#000000" stroke-width="4" stroke-linecap="round" stroke-miterlimit="10" x1="267.123" y1="84.214" x2="267.123" y2="96.461"/>
		
			<line fill="none" stroke="#4A2F11" stroke-width="3" stroke-linecap="round" stroke-miterlimit="10" x1="267.123" y1="84.214" x2="267.123" y2="96.461"/>
		<path fill="none" stroke="#000000" stroke-width="4" stroke-linecap="round" stroke-miterlimit="10" d="M264.622,99.58
			c0.825,1.301,4.353,1.17,5.003,0.439"/>
		<path fill="none" stroke="#4A2F11" stroke-width="3" stroke-linecap="round" stroke-miterlimit="10" d="M264.622,99.58
			c0.825,1.301,4.353,1.17,5.003,0.439"/>
		<path fill="none" stroke="#000000" stroke-width="4" stroke-linecap="round" stroke-miterlimit="10" d="M264.512,96.805
			c0.826,0.969,4.352,0.872,5.004,0.328"/>
		<path fill="none" stroke="#4A2F11" stroke-width="3" stroke-linecap="round" stroke-miterlimit="10" d="M264.512,96.805
			c0.826,0.969,4.352,0.872,5.004,0.328"/>
		<path fill="none" stroke="#000000" stroke-width="4" stroke-linecap="round" stroke-miterlimit="10" d="M264.502,93.988
			c0.957,1.207,4.451,0.709,5.021-0.086"/>
		<path fill="none" stroke="#4A2F11" stroke-width="3" stroke-linecap="round" stroke-miterlimit="10" d="M264.502,93.988
			c0.957,1.207,4.451,0.709,5.021-0.086"/>
	</g>
	<g id="head_11_">
		<path fill="#ADADAD" stroke="#000000" stroke-miterlimit="10" d="M275.143,110.122c3.385,5.503,0.267,10.808-6.908,14.604
			c-7.174,3.796-13.41,4.109-15.762-3.194c-4.502-13.993-3.35-14.407,4.817-17.783C264.79,100.648,270.129,101.977,275.143,110.122z
			"/>
		<path fill="none" stroke="#000000" stroke-width="2" stroke-linecap="round" stroke-miterlimit="10" d="M260.322,116.373"/>
		<path fill="none" stroke="#000000" stroke-width="2" stroke-linecap="round" stroke-miterlimit="10" d="M256.452,122.66"/>
	</g>
</g>
<g id="_x36_">
	<path fill="#ADADAD" stroke="#000000" stroke-miterlimit="10" d="M214.201,79.084c1.527,0,1.758,1.238,1.758,2.764v66.658
		c0,1.525-0.23,0.754-1.758,0.754h-2.01c-1.525,0-1.758,0.771-1.758-0.754V81.848c0-1.525,0.231-2.764,1.758-2.764H214.201z"/>
	<path fill="#ADADAD" stroke="#000000" stroke-miterlimit="10" d="M218.641,84.717c0,1.526-1.236,1.759-2.764,1.759H186.65
		c-1.527,0-2.765-0.232-2.765-1.759v-2.01c0-1.525,1.236-1.758,2.765-1.758h29.227c1.527,0,2.764,0.232,2.764,1.758V84.717
		L218.641,84.717z"/>
	<path fill="#ADADAD" stroke="#000000" stroke-miterlimit="10" d="M213.125,96.482c-0.553,0.613-1.133,0.26-1.744-0.293
		l-11.73-10.564c-0.612-0.552-1.024-1.092-0.473-1.705l0.725-0.807c0.554-0.611,1.134-0.258,1.746,0.294l11.729,10.565
		c0.613,0.551,1.024,1.092,0.476,1.703L213.125,96.482z"/>
	<g id="soga_10_">
		<g>
			<path fill="none" stroke="#000000" stroke-width="4" stroke-miterlimit="10" d="M187.266,125.156
				c-4.389,0-7.947-4.104-7.947-9.166c0-4.25,8.988-15.133,7.947-15.133"/>
			<path fill="none" stroke="#4A2F11" stroke-width="3" stroke-miterlimit="10" d="M187.266,125.156
				c-4.389,0-7.947-4.104-7.947-9.166c0-4.25,8.988-15.133,7.947-15.133"/>
		</g>
		<g>
			<path fill="none" stroke="#000000" stroke-width="4" stroke-miterlimit="10" d="M187.266,125.156
				c4.392,0,7.947-4.104,7.947-9.166c0-4.229-9.01-15.133-7.947-15.133"/>
			<path fill="none" stroke="#4A2F11" stroke-width="3" stroke-miterlimit="10" d="M187.266,125.156
				c4.392,0,7.947-4.104,7.947-9.166c0-4.229-9.01-15.133-7.947-15.133"/>
		</g>
		
			<line fill="none" stroke="#000000" stroke-width="4" stroke-linecap="round" stroke-miterlimit="10" x1="187.123" y1="84.215" x2="187.123" y2="96.461"/>
		
			<line fill="none" stroke="#4A2F11" stroke-width="3" stroke-linecap="round" stroke-miterlimit="10" x1="187.123" y1="84.215" x2="187.123" y2="96.461"/>
		<path fill="none" stroke="#000000" stroke-width="4" stroke-linecap="round" stroke-miterlimit="10" d="M184.623,99.58
			c0.824,1.301,4.352,1.17,5.002,0.439"/>
		<path fill="none" stroke="#4A2F11" stroke-width="3" stroke-linecap="round" stroke-miterlimit="10" d="M184.623,99.58
			c0.824,1.301,4.352,1.17,5.002,0.439"/>
		<path fill="none" stroke="#000000" stroke-width="4" stroke-linecap="round" stroke-miterlimit="10" d="M184.512,96.805
			c0.826,0.969,4.352,0.873,5.004,0.328"/>
		<path fill="none" stroke="#4A2F11" stroke-width="3" stroke-linecap="round" stroke-miterlimit="10" d="M184.512,96.805
			c0.826,0.969,4.352,0.873,5.004,0.328"/>
		<path fill="none" stroke="#000000" stroke-width="4" stroke-linecap="round" stroke-miterlimit="10" d="M184.502,93.988
			c0.957,1.207,4.451,0.709,5.021-0.086"/>
		<path fill="none" stroke="#4A2F11" stroke-width="3" stroke-linecap="round" stroke-miterlimit="10" d="M184.502,93.988
			c0.957,1.207,4.451,0.709,5.021-0.086"/>
	</g>
	<g id="head_10_">
		<path fill="none" stroke="#000000" stroke-width="2" stroke-linecap="round" stroke-miterlimit="10" d="M190.627,109.834"/>
		<path display="none" fill="#B32016" stroke="#000000" stroke-linecap="round" stroke-miterlimit="10" d="M181.035,126.09
			c0,0-0.158,3.732,3.449,3.406c3.721-0.334,2.666-1.822,2.07-3.529c-0.431-1.23-1.269-2.871,0.159-3.463
			c0.812-0.336-1.228,0.717-3.088,1.662C182.205,124.885,181.035,126.09,181.035,126.09z"/>
		<path display="none" fill="#816A30" stroke="#000000" stroke-linecap="round" stroke-miterlimit="10" d="M184.086,127.482
			c0,0-0.42-0.691-0.545-1.074c-0.125-0.383-0.268-1.568-0.268-1.568"/>
	</g>
</g>
<g id="_x35_">
	<path fill="#ADADAD" stroke="#000000" stroke-miterlimit="10" d="M134.201,79.084c1.527,0,1.758,1.238,1.758,2.764v66.658
		c0,1.525-0.23,0.754-1.758,0.754h-2.01c-1.525,0-1.758,0.771-1.758-0.754V81.848c0-1.525,0.232-2.764,1.758-2.764H134.201z"/>
	<path fill="#ADADAD" stroke="#000000" stroke-miterlimit="10" d="M138.641,84.717c0,1.526-1.236,1.759-2.764,1.759H106.65
		c-1.527,0-2.764-0.232-2.764-1.759v-2.01c0-1.525,1.236-1.758,2.764-1.758h29.227c1.527,0,2.764,0.232,2.764,1.758V84.717
		L138.641,84.717z"/>
	<path fill="#ADADAD" stroke="#000000" stroke-miterlimit="10" d="M133.125,96.482c-0.553,0.613-1.133,0.26-1.744-0.293
		l-11.73-10.564c-0.613-0.552-1.025-1.092-0.473-1.705l0.725-0.807c0.553-0.611,1.133-0.258,1.746,0.294l11.729,10.565
		c0.613,0.551,1.025,1.092,0.475,1.703L133.125,96.482z"/>
	<g id="soga_9_">
		
			<line fill="none" stroke="#000000" stroke-width="4" stroke-linecap="round" stroke-miterlimit="10" x1="107.123" y1="84.215" x2="107.123" y2="96.461"/>
		
			<line fill="none" stroke="#4A2F11" stroke-width="3" stroke-linecap="round" stroke-miterlimit="10" x1="107.123" y1="84.215" x2="107.123" y2="96.461"/>
	</g>
	<g id="head_9_">
		<path fill="none" stroke="#000000" stroke-width="2" stroke-linecap="round" stroke-miterlimit="10" d="M110.627,109.834"/>
		<path display="none" fill="#B32016" stroke="#000000" stroke-linecap="round" stroke-miterlimit="10" d="M101.035,126.09
			c0,0-0.158,3.732,3.449,3.406c3.721-0.334,2.666-1.822,2.07-3.529c-0.43-1.23-1.268-2.871,0.16-3.463
			c0.811-0.336-1.227,0.717-3.088,1.662C102.205,124.885,101.035,126.09,101.035,126.09z"/>
		<path display="none" fill="#816A30" stroke="#000000" stroke-linecap="round" stroke-miterlimit="10" d="M104.086,127.482
			c0,0-0.42-0.691-0.545-1.074c-0.125-0.383-0.268-1.568-0.268-1.568"/>
	</g>
</g>
<g id="_x34_">
	<path fill="#ADADAD" stroke="#000000" stroke-miterlimit="10" d="M54.201,79.084c1.527,0,1.758,1.238,1.758,2.764v66.658
		c0,1.525-0.23,0.754-1.758,0.754h-2.01c-1.525,0-1.758,0.771-1.758-0.754V81.848c0-1.525,0.232-2.764,1.758-2.764H54.201z"/>
	<path fill="#ADADAD" stroke="#000000" stroke-miterlimit="10" d="M58.641,84.717c0,1.526-1.236,1.759-2.764,1.759H26.65
		c-1.527,0-2.764-0.232-2.764-1.759v-2.01c0-1.525,1.236-1.758,2.764-1.758h29.227c1.527,0,2.764,0.232,2.764,1.758V84.717z"/>
	<path fill="#ADADAD" stroke="#000000" stroke-miterlimit="10" d="M53.125,96.482c-0.553,0.613-1.133,0.26-1.744-0.293L39.65,85.625
		c-0.613-0.552-1.025-1.092-0.473-1.705l0.725-0.807c0.553-0.611,1.133-0.258,1.746,0.294l11.729,10.565
		c0.613,0.551,1.025,1.092,0.475,1.703L53.125,96.482z"/>
	<g id="head_8_">
		<path display="none" fill="#B32016" stroke="#000000" stroke-linecap="round" stroke-miterlimit="10" d="M21.035,126.09
			c0,0-0.158,3.732,3.449,3.406c3.721-0.334,2.666-1.822,2.07-3.529c-0.43-1.23-1.268-2.871,0.16-3.463
			c0.811-0.336-1.227,0.717-3.088,1.662C22.205,124.885,21.035,126.09,21.035,126.09z"/>
		<path display="none" fill="#816A30" stroke="#000000" stroke-linecap="round" stroke-miterlimit="10" d="M24.086,127.482
			c0,0-0.42-0.691-0.545-1.074c-0.125-0.383-0.268-1.568-0.268-1.568"/>
	</g>
	<g id="soga_2_">
		
			<line fill="none" stroke="#000000" stroke-width="4" stroke-linecap="round" stroke-miterlimit="10" x1="27.123" y1="84.215" x2="27.123" y2="84.461"/>
	</g>
</g>
<g id="_x33_">
	<path fill="#ADADAD" stroke="#000000" stroke-miterlimit="10" d="M294.201,5.084c1.525,0,1.758,1.237,1.758,2.764v66.658
		c0,1.525-0.23,0.754-1.758,0.754h-2.01c-1.525,0-1.76,0.771-1.76-0.754V7.848c0-1.526,0.233-2.764,1.76-2.764H294.201z"/>
	<path fill="#ADADAD" stroke="#000000" stroke-miterlimit="10" d="M298.641,10.717c0,1.525-1.236,1.758-2.764,1.758H266.65
		c-1.527,0-2.765-0.232-2.765-1.758v-2.01c0-1.526,1.236-1.759,2.765-1.759h29.227c1.525,0,2.764,0.232,2.764,1.759V10.717z"/>
	<path fill="#ADADAD" stroke="#000000" stroke-miterlimit="10" d="M293.124,22.482c-0.552,0.613-1.132,0.259-1.744-0.293
		L279.65,11.625c-0.613-0.553-1.025-1.092-0.475-1.705l0.727-0.807c0.553-0.612,1.133-0.258,1.744,0.293l11.729,10.565
		c0.613,0.552,1.024,1.092,0.474,1.704L293.124,22.482z"/>
</g>
<g id="_x32_">
	<path fill="#ADADAD" stroke="#000000" stroke-miterlimit="10" d="M214.201,5.084c1.527,0,1.758,1.238,1.758,2.764v66.658
		c0,1.525-0.23,0.754-1.758,0.754h-2.01c-1.525,0-1.758,0.771-1.758-0.754V7.848c0-1.525,0.231-2.764,1.758-2.764H214.201z"/>
	<path fill="#ADADAD" stroke="#000000" stroke-miterlimit="10" d="M218.641,10.717c0,1.526-1.236,1.759-2.764,1.759H186.65
		c-1.527,0-2.765-0.232-2.765-1.759v-2.01c0-1.525,1.236-1.758,2.765-1.758h29.227c1.527,0,2.764,0.232,2.764,1.758V10.717
		L218.641,10.717z"/>
	<g id="head_14_">
		<path display="none" fill="#B32016" stroke="#000000" stroke-linecap="round" stroke-miterlimit="10" d="M181.035,52.09
			c0,0-0.158,3.732,3.449,3.406c3.721-0.334,2.666-1.822,2.07-3.529c-0.431-1.23-1.269-2.871,0.159-3.463
			c0.812-0.336-1.228,0.717-3.088,1.662C182.205,50.885,181.035,52.09,181.035,52.09z"/>
		<path display="none" fill="#816A30" stroke="#000000" stroke-linecap="round" stroke-miterlimit="10" d="M184.086,53.482
			c0,0-0.42-0.691-0.545-1.074c-0.125-0.383-0.268-1.568-0.268-1.568"/>
	</g>
</g>
<g id="_x31_">
	<path fill="#ADADAD" stroke="#000000" stroke-miterlimit="10" d="M134.201,5.084c1.527,0,1.758,1.238,1.758,2.764v66.658
		c0,1.525-0.23,0.754-1.758,0.754h-2.01c-1.525,0-1.758,0.771-1.758-0.754V7.848c0-1.525,0.232-2.764,1.758-2.764H134.201z"/>
</g>
<g id="w">
	<g id="body_2_">
		<path fill="#ADADAD" stroke="#000000" stroke-miterlimit="10" d="M30.546,51.066c-0.183-0.856,0.633-1.718,1.643-1.595
			c1.009,0.123,6.86,3.487,8.021,4.091c1.16,0.605,3.401,0.757,3.904,2.181c0.504,1.423,0.588,3.089-1.193,4.31
			c-1.224,0.839-2.107-1.71-2.365-1.369c-0.876,1.16-2.043-0.057-2.404-1.357c-0.363-1.301-3.111-3.891-4.576-4.533
			C32.11,52.153,30.83,52.398,30.546,51.066z"/>
		<path fill="#ADADAD" stroke="#000000" stroke-miterlimit="10" d="M29.521,60.156c0.981,0.625,4.23,10.502,3.792,11.291
			c-0.438,0.787-1.592,1.23-3.752,0.955c-2.16-0.276-4.267-0.967-4.233-1.891c0.033-0.924,0.761-1.337,0.849-2.677
			c0.086-1.339-0.364-5.196,0.279-6.211C27.1,60.608,28.195,59.312,29.521,60.156z"/>
		<path fill="#ADADAD" stroke="#000000" stroke-miterlimit="10" d="M20.716,60.475c-0.831,0.815-1.958,11.152-1.365,11.833
			c0.592,0.679,1.813,0.873,3.868,0.155c2.056-0.719,3.972-1.831,3.749-2.729c-0.226-0.896-1.023-1.149-1.387-2.441
			c-0.363-1.293-0.723-5.159-1.563-6.019C23.177,60.413,21.837,59.373,20.716,60.475z"/>
		<path fill="#939393" stroke="#000000" stroke-miterlimit="10" d="M30.277,47.069c1.92,1.027,3.775,1.999,3.677,3.122
			c-0.098,1.124-1.153,3.03-1.948,5.348c-0.795,2.319-1.073,6.588-4.071,7.138c-2.997,0.551-6.886-1.224-7.924-3.999
			c-1.038-2.775,1.67-6.098,2.838-7.854c1.167-1.755,1.438-3.964,3.182-4.632C27.774,45.525,28.664,46.207,30.277,47.069z"/>
		<path fill="#ADADAD" stroke="#000000" stroke-miterlimit="10" d="M23.886,49.092c-0.867,0.123-1.394,1.185-0.931,2.09
			c0.463,0.906,5.634,5.242,6.601,6.123c0.967,0.881,1.882,2.935,3.393,2.918c1.51-0.019,3.101-0.513,3.636-2.605
			c0.365-1.438-2.332-1.389-2.099-1.748c0.787-1.224-0.757-1.899-2.104-1.792c-1.345,0.108-4.724-1.581-5.828-2.736
			C25.446,50.188,25.235,48.901,23.886,49.092z"/>
	</g>
	<g id="head_2_">
		<path fill="#ADADAD" stroke="#000000" stroke-miterlimit="10" d="M40.794,41.4c0.068,6.46-5.337,9.402-13.442,8.962
			c-8.105-0.439-13.612-3.384-11.866-10.855c3.347-14.313,4.548-14.075,13.287-12.763C36.799,27.949,40.692,31.836,40.794,41.4z"/>
		<path fill="none" stroke="#000000" stroke-linecap="round" stroke-miterlimit="10" d="M16.813,42.558
			c1.167,3.076,7.453,3.49,10.569,3.797c3.117,0.308,9.627,0.69,10.743-1.168"/>
	</g>
	<path fill="none" stroke="#000000" stroke-linecap="round" stroke-miterlimit="10" d="M31.771,42.28
		c-0.047-0.815,1.004-1.539,2.348-1.617c1.344-0.078,2.472,0.52,2.519,1.335"/>
	<path fill="none" stroke="#000000" stroke-linecap="round" stroke-miterlimit="10" d="M18.172,40.159
		c0.24-0.829,1.556-1.175,2.94-0.775c1.384,0.4,2.312,1.396,2.072,2.225"/>
</g>
</svg>
