<?xml version="1.0"?>
<svg xmlns="http://www.w3.org/2000/svg" xmlns:xlink="http://www.w3.org/1999/xlink" version="1.1" id="Layer_1" x="0px" y="0px" viewBox="0 0 512 512" style="enable-background:new 0 0 512 512;" xml:space="preserve" width="72px" height="72px" class="hovered-paths"><g><g>
	<g>
		<g>
			<path d="M379.97,167.874l-0.001,0.002c-0.007-0.006-0.013-0.015-0.02-0.021c-10.362-10.165-22.079-18.534-34.719-24.934     c6.44-1.69,12.286-3.789,17.093-6.402c13.514-7.346,21.887-17.815,24.885-31.117c6.332-28.076-15.108-57.942-16.023-59.2     c-1.714-2.354-4.318-3.906-7.205-4.293c-2.885-0.385-5.806,0.422-8.081,2.242l-24.01,19.208     c-0.229-8.272-2.262-16.891-6.128-25.735c-7.376-16.879-19.058-28.671-19.552-29.165c-2.587-2.587-6.322-3.666-9.886-2.864     c-3.569,0.803-6.476,3.379-7.705,6.825l-6.496,18.222c-4.535-9.495-10.641-19.578-18.582-27.517     c-4.109-4.107-10.749-4.173-14.939-0.142c-0.713,0.686-11.18,10.896-19.548,25.553l-5.661-16.076     c-1.175-3.338-3.931-5.876-7.353-6.774c-3.426-0.9-7.069-0.041-9.732,2.29C205.801,8.417,193.837,19,186.29,35.447     c-3.508,7.648-6.381,17.251-6.254,28.021l-24.145-19.316c-2.278-1.823-5.204-2.631-8.097-2.241     c-2.893,0.393-5.497,1.952-7.209,4.317c-0.918,1.269-22.423,31.413-15.964,59.498c3.043,13.226,11.42,23.596,24.877,30.811     c4.58,2.469,10.357,4.581,17.292,6.34c-12.635,6.401-24.351,14.778-34.745,24.982c-0.006,0.005-0.011,0.013-0.017,0.018     l-0.001-0.001c-26.671,26.306-41.361,61.392-41.361,98.79V288v7.792v77.541c0,22.146,5.394,44.205,15.598,63.794     c0.001,0.002,0.002,0.004,0.004,0.006c0,0.001,0,0.002,0.001,0.003l0.001,0.001c18.852,36.27,52.419,62.253,92.096,71.29     c0.002,0,0.003,0,0.005,0.001c0.003,0.001,0.008,0.002,0.011,0.003c0.002,0.001,0.004,0.001,0.006,0.001     C208.721,510.8,219.133,512,229.333,512h53.333c9.878,0,20.007-1.159,30.967-3.547l-0.001-0.006     c0.043-0.01,0.087-0.013,0.13-0.022c39.657-9.152,73.175-35.135,91.966-71.286l0.001-0.001c0.001-0.001,0.001-0.002,0.001-0.003     c0.002-0.002,0.003-0.004,0.004-0.006c10.204-19.589,15.598-41.648,15.598-63.794v-77.541v-7.687v-21.438     C421.333,229.268,406.644,194.182,379.97,167.874z M356.98,175.884l-25.564,25.563l-51.899-51.895     c2.193-0.01,4.528-0.043,6.994-0.109C312.355,150.233,337,159.538,356.98,175.884z M240.92,291.953l-60.238,60.321     l-60.322-60.332l60.228-60.321L240.92,291.953z M195.668,216.531L256,156.205l60.332,60.327L256,276.863L195.668,216.531z      M256.005,307.039l60.332,60.332l-60.238,60.311l-60.332-60.322L256.005,307.039z M271.086,291.949l60.331-60.332l60.323,60.332     l-60.323,60.331L271.086,291.949z M359.691,68.437c4.586,9.068,9.095,21.788,6.697,32.322     c-1.621,7.117-6.283,12.683-14.252,17.016c-11.003,5.98-34.746,9.735-65.292,10.323c-0.34-0.021-0.68-0.041-1.012-0.052     l30.106-24.605L359.691,68.437z M292.307,65.6l9.779-27.429c1.539,2.591,3.038,5.44,4.334,8.476     c6.769,15.844,5.213,29.222-4.729,40.882l-23.503,19.208L292.307,65.6z M255.695,27.092     c8.547,12.593,13.522,28.011,15.398,34.607l-15.086,43.956l-15.871-45.632C241.314,48.119,249.025,35.63,255.695,27.092z      M205.429,44.899c1.227-2.754,2.638-5.307,4.091-7.614l9.044,25.682c0,0.058-0.001,0.126-0.001,0.178h0.064l0.633,1.796     l14.579,41.919l-23.46-19.105C200.322,74.061,198.69,60.032,205.429,44.899z M159.603,117.745     c-7.906-4.239-12.544-9.719-14.177-16.755c-2.452-10.557,2.086-23.395,6.694-32.538l43.707,34.964l30.028,24.455     C183.18,126.951,166.13,121.263,159.603,117.745z M229.333,149.333h3.366l-52.116,52.113l-25.567-25.567     C175.992,158.69,202.004,149.333,229.333,149.333z M112,266.667c0-28.094,9.806-54.642,27.804-75.829l25.7,25.7L112,270.122     V266.667z M112,373.333v-59.58l53.597,53.604l-46.411,46.328C114.462,400.809,112,387.091,112,373.333z M197.5,486.206     c-28.636-8.027-53.057-26.653-68.505-52.169l51.686-51.595l60.332,60.323L197.5,486.206z M282.667,490.667h-53.333     c-1.988,0-3.968-0.059-5.946-0.162l32.71-32.655l32.64,32.639C286.691,490.606,284.669,490.667,282.667,490.667z      M314.607,486.189l-43.423-43.422l60.238-60.313l51.585,51.577C367.605,459.458,343.223,478.079,314.607,486.189z M400,373.333     c0,13.754-2.46,27.468-7.181,40.339l-46.317-46.309L400,313.858V373.333z M400,270.038l-53.499-53.506l25.695-25.695     C390.194,212.024,400,238.573,400,266.667V270.038z" data-original="#000000" class="active-path" data-old_color="#F6E7E7" fill="#F9F1F1"/>
			<rect x="245.333" y="208" width="21.333" height="21.333" data-original="#000000" class="active-path" data-old_color="#F6E7E7" fill="#F9F1F1"/>
			<rect x="245.333" y="357.333" width="21.333" height="21.333" data-original="#000000" class="active-path" data-old_color="#F6E7E7" fill="#F9F1F1"/>
			<rect x="320" y="282.667" width="21.333" height="21.333" data-original="#000000" class="active-path" data-old_color="#F6E7E7" fill="#F9F1F1"/>
			<rect x="170.667" y="282.667" width="21.333" height="21.333" data-original="#000000" class="active-path" data-old_color="#F6E7E7" fill="#F9F1F1"/>
			<rect x="170.667" y="432" width="21.333" height="21.333" data-original="#000000" class="active-path" data-old_color="#F6E7E7" fill="#F9F1F1"/>
			<rect x="320" y="432" width="21.333" height="21.333" data-original="#000000" class="active-path" data-old_color="#F6E7E7" fill="#F9F1F1"/>
		</g>
	</g>
</g></g> </svg>
